<svg width="24" height="24" viewBox="0 0 24 24" fill="none" xmlns="http://www.w3.org/2000/svg">
<path d="M16.5819 23.2744H6.78695C5.01206 23.2744 3.30987 22.5693 2.05483 21.3143C0.799799 20.0593 0.0947266 18.3571 0.0947266 16.5822V6.7872C0.0947266 5.01231 0.799799 3.31012 2.05483 2.05508C3.30987 0.800043 5.01206 0.0949707 6.78695 0.0949707H16.5819C18.3568 0.0949707 20.059 0.800043 21.3141 2.05508C22.5691 3.31012 23.2742 5.01231 23.2742 6.7872V16.5822C23.2742 18.3571 22.5691 20.0593 21.3141 21.3143C20.059 22.5693 18.3568 23.2744 16.5819 23.2744ZM21.084 6.48301C21.084 5.35353 20.6353 4.27032 19.8366 3.47166C19.038 2.673 17.9548 2.22432 16.8253 2.22432C16.8253 2.22432 14.3553 2.10264 11.9379 2.10264C9.23063 2.10264 6.5436 2.22432 6.5436 2.22432C5.41413 2.22432 4.33091 2.673 3.53225 3.47166C2.73359 4.27032 2.28491 5.35353 2.28491 6.48301C2.28491 6.48301 2.22407 9.24102 2.22407 11.8976C2.22407 14.3717 2.28491 16.7647 2.28491 16.7647C2.28491 17.8942 2.73359 18.9774 3.53225 19.7761C4.33091 20.5747 5.41413 21.0234 6.5436 21.0234C6.5436 21.0234 9.20265 21.1451 11.8163 21.1451C14.3419 21.1451 16.8253 21.0234 16.8253 21.0234C17.3846 21.0234 17.9383 20.9132 18.455 20.6992C18.9717 20.4852 19.4412 20.1715 19.8366 19.7761C20.2321 19.3806 20.5458 18.9111 20.7598 18.3944C20.9738 17.8777 21.084 17.324 21.084 16.7647C21.084 16.7647 21.2057 14.3717 21.2057 11.8976C21.2057 9.23939 21.084 6.48301 21.084 6.48301ZM17.8595 6.84804C17.5828 6.84804 17.3123 6.76597 17.0821 6.61221C16.852 6.45846 16.6727 6.23992 16.5668 5.98424C16.4609 5.72855 16.4332 5.4472 16.4872 5.17577C16.5411 4.90433 16.6744 4.655 16.8701 4.45931C17.0658 4.26362 17.3151 4.13035 17.5866 4.07636C17.858 4.02236 18.1393 4.05007 18.395 4.15598C18.6507 4.26189 18.8693 4.44124 19.023 4.67135C19.1768 4.90146 19.2588 5.172 19.2588 5.44875C19.2588 5.81987 19.1114 6.17578 18.849 6.4382C18.5866 6.70061 18.2307 6.84804 17.8595 6.84804ZM11.6844 17.6773C10.4992 17.6773 9.34062 17.3258 8.35515 16.6673C7.36967 16.0089 6.60158 15.073 6.14802 13.978C5.69446 12.883 5.57578 11.678 5.80701 10.5156C6.03823 9.35315 6.60897 8.28537 7.44705 7.44729C8.28513 6.60922 9.35291 6.03848 10.5154 5.80725C11.6778 5.57603 12.8827 5.6947 13.9777 6.14826C15.0727 6.60183 16.0086 7.36991 16.6671 8.35539C17.3256 9.34087 17.677 10.4995 17.677 11.6847C17.677 12.4716 17.522 13.2509 17.2209 13.978C16.9197 14.705 16.4783 15.3656 15.9218 15.9221C15.3654 16.4786 14.7048 16.92 13.9777 17.2211C13.2507 17.5223 12.4714 17.6773 11.6844 17.6773ZM11.6844 7.76061C10.9204 7.76061 10.1735 7.98719 9.53815 8.41169C8.90284 8.83618 8.40768 9.43954 8.11528 10.1455C7.82288 10.8514 7.74637 11.6281 7.89544 12.3775C8.0445 13.1269 8.41244 13.8153 8.95272 14.3556C9.49301 14.8959 10.1814 15.2638 10.9308 15.4129C11.6802 15.5619 12.4569 15.4854 13.1628 15.193C13.8688 14.9006 14.4721 14.4055 14.8966 13.7702C15.3211 13.1348 15.5477 12.3879 15.5477 11.6239C15.5477 10.5993 15.1407 9.61663 14.4162 8.89213C13.6917 8.16763 12.709 7.76061 11.6844 7.76061Z" fill="white"/>
</svg>
