<svg width="189" height="39" viewBox="0 0 189 39" fill="none" xmlns="http://www.w3.org/2000/svg">
<path d="M10.4181 18.5994L7.59096 21.6056V28.2692H0.121094V1.61487H7.59096V12.6978L17.9157 1.61487H26.2171L15.3241 13.4182L26.7992 28.2692H18.0266L10.4181 18.5994Z" fill="#F68C1E"/>
<path d="M49.5414 17.99C49.5414 18.0385 49.4998 18.6342 49.4167 19.7771H34.4077C34.7126 20.8404 35.3016 21.6577 36.1816 22.2292C37.0582 22.8041 38.1565 23.0881 39.48 23.0881C40.4674 23.0881 41.3232 22.9496 42.0438 22.6725C42.7714 22.3954 43.5059 21.9383 44.2474 21.301L48.0447 25.2631C46.0386 27.5005 43.104 28.6157 39.2444 28.6157C36.833 28.6157 34.7126 28.1585 32.8832 27.2442C31.0539 26.3299 29.6333 25.0623 28.6286 23.4345C27.6308 21.8101 27.1318 19.9676 27.1318 17.9069C27.1318 15.8773 27.6204 14.0555 28.6009 12.4485C29.5779 10.8346 30.9326 9.56698 32.6615 8.65264C34.3869 7.7383 36.3271 7.28113 38.4821 7.28113C40.5402 7.28113 42.4076 7.70713 44.0811 8.55566C45.7615 9.40766 47.0919 10.6406 48.0724 12.2546C49.0494 13.872 49.5414 15.7838 49.5414 17.99ZM38.5237 12.4208C37.4046 12.4208 36.4726 12.7395 35.7243 13.3767C34.9759 14.014 34.4978 14.8798 34.2968 15.9673H42.7506C42.5462 14.8798 42.0716 14.014 41.3232 13.3767C40.5748 12.7395 39.6394 12.4208 38.5237 12.4208Z" fill="#F68C1E"/>
<path d="M66.3365 7.28076C68.9039 7.28076 70.9688 8.04271 72.5314 9.56661C74.0905 11.0905 74.8735 13.3902 74.8735 16.4657V28.269H67.6393V17.6433C67.6393 14.8275 66.5063 13.4179 64.2439 13.4179C62.9966 13.4179 61.9987 13.8266 61.2504 14.637C60.502 15.4509 60.1278 16.6701 60.1278 18.2944V28.269H52.8936V7.6271H59.7813V9.87139C60.5921 9.04017 61.5587 8.4029 62.6778 7.95959C63.7935 7.50935 65.013 7.28076 66.3365 7.28076Z" fill="#F68C1E"/>
<path d="M97.617 14.3738H104.283V25.4151C102.759 26.5061 101.002 27.3408 99.0167 27.9227C97.0384 28.5045 95.06 28.7954 93.0852 28.7954C90.2857 28.7954 87.7669 28.2101 85.5322 27.036C83.294 25.855 81.5408 24.2099 80.2658 22.1041C78.9978 19.9915 78.3672 17.6017 78.3672 14.9418C78.3672 12.275 78.9978 9.88524 80.2658 7.77949C81.5408 5.67374 83.3078 4.03209 85.5737 2.8476C87.8362 1.66658 90.3896 1.07434 93.2376 1.07434C95.7218 1.07434 97.9531 1.49688 99.9314 2.33502C101.917 3.17663 103.569 4.38189 104.893 5.95081L100.084 10.287C98.2822 8.31286 96.1237 7.32232 93.6118 7.32232C91.3286 7.32232 89.4854 8.015 88.0822 9.40037C86.6859 10.7857 85.9895 12.6352 85.9895 14.9418C85.9895 16.4103 86.3082 17.7229 86.9457 18.8762C87.5833 20.033 88.4702 20.937 89.6066 21.5916C90.75 22.2392 92.0631 22.5613 93.5425 22.5613C94.9838 22.5613 96.342 22.2669 97.617 21.6747V14.3738Z" fill="#F68C1E"/>
<path d="M119.092 28.6157C116.881 28.6157 114.886 28.1585 113.105 27.2442C111.331 26.3299 109.938 25.0623 108.933 23.4345C107.935 21.8101 107.437 19.9676 107.437 17.9069C107.437 15.8773 107.935 14.0486 108.933 12.4208C109.938 10.7965 111.324 9.5358 113.091 8.63878C114.865 7.73483 116.864 7.28113 119.092 7.28113C121.326 7.28113 123.333 7.73483 125.106 8.63878C126.887 9.5358 128.273 10.793 129.264 12.407C130.262 14.0244 130.761 15.8565 130.761 17.9069C130.761 19.9676 130.262 21.8101 129.264 23.4345C128.273 25.0623 126.887 26.3299 125.106 27.2442C123.333 28.1585 121.326 28.6157 119.092 28.6157ZM119.092 22.8665C120.367 22.8665 121.41 22.4301 122.224 21.5504C123.035 20.6741 123.443 19.4585 123.443 17.9069C123.443 16.383 123.035 15.1915 122.224 14.3326C121.41 13.4668 120.367 13.0304 119.092 13.0304C117.824 13.0304 116.784 13.4668 115.974 14.3326C115.159 15.1915 114.754 16.383 114.754 17.9069C114.754 19.4585 115.159 20.6741 115.974 21.5504C116.784 22.4301 117.824 22.8665 119.092 22.8665Z" fill="#F68C1E"/>
<path d="M137.158 28.6156C135.939 28.6156 134.906 28.2103 134.068 27.3964C133.226 26.586 132.807 25.5539 132.807 24.3071C132.807 23.0429 133.215 22.0178 134.04 21.2316C134.872 20.4385 135.911 20.0402 137.158 20.0402C138.423 20.0402 139.462 20.4385 140.277 21.2316C141.087 22.0178 141.496 23.0429 141.496 24.3071C141.496 25.5539 141.08 26.586 140.249 27.3964C139.424 28.2103 138.395 28.6156 137.158 28.6156Z" fill="#3D4B9F"/>
<path d="M154.263 21.0368L152.129 23.1979V28.2683H144.895V0.00695801H152.129V14.8303L159.516 7.62645H168.094L159.516 16.4651L168.815 28.2683H160.056L154.263 21.0368Z" fill="#3D4B9F"/>
<path d="M189 22.8658V28.2687H169.958V24.0018L179.521 13.002H170.221V7.62683H188.626V11.8522L179.063 22.8658H189Z" fill="#3D4B9F"/>
<path d="M0.000488281 31.552H26.4153V38.9568H0.000488281V31.552Z" fill="black"/>
<path d="M0.000488281 31.552H26.4187V38.9568H0.000488281V31.552Z" fill="#3D4B9F"/>
<path d="M93.6816 14.3047H104.225V19.389H93.6816V14.3047Z" fill="black"/>
<path d="M93.6816 14.3047H104.232V19.389H93.6816V14.3047Z" fill="#F68C1E"/>
</svg>
