<svg width="8" height="13" viewBox="0 0 8 13" fill="none" xmlns="http://www.w3.org/2000/svg">
<path d="M0.869502 12.8684L7.92244 6.67241C7.94699 6.65004 7.9665 6.62332 7.97982 6.59382C7.99314 6.56432 8 6.53264 8 6.50064C8 6.46863 7.99314 6.43695 7.97982 6.40745C7.9665 6.37795 7.94699 6.35123 7.92244 6.32886L0.869502 0.130456C0.820112 0.0871705 0.762047 0.0533891 0.69863 0.0310454C0.635213 0.00870166 0.56769 -0.00176561 0.499927 0.00024281C0.432164 0.00225123 0.365492 0.0166959 0.303727 0.0427499C0.241961 0.0688039 0.186316 0.105956 0.139977 0.152078C0.0935327 0.198109 0.0572857 0.252224 0.0333112 0.311328C0.00933675 0.370431 -0.00189447 0.43336 0.000260532 0.496514C0.00241554 0.559668 0.0179145 0.621805 0.04587 0.679369C0.0738255 0.736933 0.113689 0.788793 0.163177 0.83198L6.39637 6.30724C6.42452 6.33215 6.44695 6.36215 6.46227 6.39539C6.47759 6.42864 6.48549 6.46445 6.48549 6.50064C6.48549 6.53682 6.47759 6.57263 6.46227 6.60588C6.44695 6.63913 6.42452 6.66912 6.39637 6.69404L0.163177 12.1693C0.113689 12.2125 0.0738255 12.2643 0.04587 12.3219C0.0179145 12.3795 0.00241554 12.4416 0.000260532 12.5048C-0.00189447 12.5679 0.00933675 12.6308 0.0333112 12.6899C0.0572857 12.749 0.0935327 12.8032 0.139977 12.8492C0.18649 12.8952 0.242271 12.9321 0.304127 12.958C0.365984 12.9838 0.432702 12.998 0.500463 12.9998C0.568224 13.0016 0.635697 12.9909 0.699022 12.9684C0.762346 12.9458 0.820278 12.9119 0.869502 12.8684Z" fill="#3D4B9F"/>
</svg>
